<?xml version="1.0" encoding="UTF-8" standalone="no"?>
<!DOCTYPE svg PUBLIC "-//W3C//DTD SVG 1.1//EN" "http://www.w3.org/Graphics/SVG/1.1/DTD/svg11.dtd">
<svg width="100%" height="100%" viewBox="0 0 300 300" version="1.1" xmlns="http://www.w3.org/2000/svg" xmlns:xlink="http://www.w3.org/1999/xlink" xml:space="preserve" xmlns:serif="http://www.serif.com/" style="fill-rule:evenodd;clip-rule:evenodd;stroke-linejoin:round;stroke-miterlimit:2;">
    <g id="Artboard1" transform="matrix(0.267857,0,0,0.441176,0,0)">
        <rect x="0" y="0" width="1120" height="680" style="fill:rgb(26,29,41);"/>
        <g transform="matrix(0.955463,0,0,0.580103,-356.942,25.8683)">
            <g id="Disney-Plus" serif:id="Disney Plus">
                <g>
                    <path d="M1174.8,624.7C1160.4,628 1122.5,629.9 1122.5,629.9L1117.7,644.9C1117.7,644.9 1136.6,643.3 1150.4,644.7C1150.4,644.7 1154.9,644.2 1155.4,649.8C1155.6,655 1155,660.6 1155,660.6C1155,660.6 1154.7,664 1149.9,664.8C1144.7,665.7 1109.1,667 1109.1,667L1103.3,686.5C1103.3,686.5 1101.2,691 1106,689.7C1110.5,688.5 1147.8,681.5 1152.7,682.5C1157.9,683.8 1163.7,690.7 1162,697.1C1160,704.9 1122.8,728.7 1100.1,727C1100.1,727 1088.2,727.8 1078.1,711.7C1068.7,696.4 1081.7,667.3 1081.7,667.3C1081.7,667.3 1075.8,653.7 1080.1,649.2C1080.1,649.2 1082.7,646.9 1090.1,646.3L1099.2,627.4C1099.2,627.4 1088.8,628.1 1082.6,620.5C1076.8,613.2 1076.4,609.9 1080.8,607.9C1085.5,605.6 1128.8,597.7 1158.6,598.7C1158.6,598.7 1169,597.7 1177.9,615.7C1177.8,615.7 1182.2,623 1174.8,624.7ZM1062.7,697.3C1058.9,706.3 1048.8,715.9 1036.3,709.9C1023.9,703.9 1004.2,663.6 1004.2,663.6C1004.2,663.6 996.7,648.6 995.3,648.9C995.3,648.9 993.7,646 992.7,662.4C991.7,678.8 992.9,710.7 986.4,715.7C980.2,720.7 972.7,718.7 968.8,712.8C965.3,707 963.8,693.2 965.7,669C968,644.8 973.6,619 980.8,610.9C988,602.9 993.8,608.7 996,610.8C996,610.8 1005.6,619.5 1021.5,645.1L1024.3,649.8C1024.3,649.8 1038.7,674 1040.2,673.9C1040.2,673.9 1041.4,675 1042.4,674.2C1043.9,673.8 1043.3,666 1043.3,666C1043.3,666 1040.3,639.7 1027.2,595.1C1027.2,595.1 1025.2,589.5 1026.6,584.3C1027.9,579 1033.2,581.5 1033.2,581.5C1033.2,581.5 1053.6,591.7 1063.4,624.9C1073.1,658.4 1066.5,688.3 1062.7,697.3ZM962.5,612C960.8,615.4 959.8,620.3 951.2,621.6C951.2,621.6 868.9,627.2 865,633C865,633 862.1,636.4 866.6,637.4C871.1,638.3 889.7,640.8 898.7,641.3C908.3,641.4 940.7,641.7 952.3,656.2C952.3,656.2 959.2,663.1 958.9,678.7C958.6,694.7 955.8,700.3 949.6,706.1C943.1,711.5 887.3,736.5 851.3,698.1C851.3,698.1 834.7,679.6 857,665.6C857,665.6 873.1,655.9 914,667.3C914,667.3 926.4,671.8 925.8,676.3C925.1,681.1 915.6,686.2 901.8,685.9C888.4,685.5 878.6,679.1 880.5,680.1C882.3,680.8 866.1,672.3 861.1,678.1C856.1,683.4 857.3,686.7 862.2,690C874.7,697.1 923,694.6 937.4,678.6C937.4,678.6 943.1,672.1 934.4,666.8C925.7,661.8 900.8,658.8 891.1,658.3C881.8,657.8 847.2,658.4 842.2,649.2C842.2,649.2 837.2,643 842.7,625.4C848.5,607 888.8,599.9 906.2,598.3C906.2,598.3 954.1,596.6 962.9,606.4C962.8,606.4 964,608.7 962.5,612ZM826.5,719.9C820.7,724.2 808.4,722.3 804.9,717.5C801.4,713.2 800.2,696.1 800.9,669.3C801.6,642.2 802.2,608.6 808,603.3C814.2,597.9 818,602.6 820.4,606.3C823,609.9 826.1,613.9 826.8,622.4C827.4,630.9 829.4,675.5 829.4,675.5C829.4,675.5 832,715.7 826.5,719.9ZM839,576.1C822.1,581.7 810.5,579.8 800.7,575.6C796.4,583.1 793.9,585.4 790.6,585.9C785.8,586.4 781.5,578.7 780.7,576.2C779.9,574.3 777.6,571.1 780.4,563.5C770.8,554.9 770.1,543.3 771.7,535.5C774.1,526.5 790.3,492.3 839.6,488.3C839.6,488.3 863.7,486.5 867.8,499.4L868.5,499.4C868.5,499.4 891.9,499.5 891.4,520.3C891.1,541.2 865.4,567.2 839,576.1ZM793,529.8C788,537.8 787.8,542.6 790.1,545.9C795.8,537.2 806.2,523.5 821.5,513.1C809.7,514.1 799.8,519.2 793,529.8ZM861.1,516.4C845.6,518.7 821.6,539.5 810.2,556.5C827.7,559.7 858.6,558.5 872.3,530.6C872.2,530.6 878.8,513.3 861.1,516.4ZM1281.9,677.5C1272.6,693.7 1246.5,727.5 1211.7,719.6C1200.2,747.5 1190.6,775.6 1185.1,817.8C1185.1,817.8 1183.9,826 1177.1,823.1C1170.4,820.7 1159.2,809.5 1157,794C1154.6,773.6 1163.7,739.1 1182.2,699.6C1176.8,690.8 1173.1,678.2 1176.3,660.3C1176.3,660.3 1181,627.1 1214.3,597.1C1214.3,597.1 1218.3,593.6 1220.6,594.7C1223.2,595.8 1222,606.6 1219.9,611.8C1217.8,617 1202.9,642.8 1202.9,642.8C1202.9,642.8 1193.6,660.2 1196.2,673.9C1213.7,647 1253.5,592.7 1278.2,609.8C1286.5,615.7 1290.3,628.6 1290.3,642.5C1290.2,654.8 1287.3,667.8 1281.9,677.5ZM1274.7,634.9C1274.7,634.9 1273.3,624.2 1262.9,636C1253.9,645.9 1237.7,664.6 1224.6,689.9C1238.3,688.4 1251.5,680.9 1255.5,677.1C1262,671.3 1277.1,655.7 1274.7,634.9ZM789.2,648.5C787.3,672.7 778,713.4 712.1,733.5C668.6,746.6 627.5,740.3 605.1,734.6C604.6,743.5 603.6,747.3 602.2,748.8C600.3,750.7 586.1,758.9 578.3,747.3C574.8,741.8 573,731.8 572,722.9C521.6,699.7 498.4,666.3 497.5,664.8C496.4,663.7 484.9,651.7 496.4,637C507.2,623.7 542.5,610.4 574.3,605C575.4,577.8 578.6,557.3 582.4,547.9C587,537 592.8,546.8 597.8,554.2C602,559.7 604.5,583.4 604.7,602.3C625.5,601.3 637.8,602.8 661,607C691.2,612.5 711.4,627.9 709.6,645.4C708.3,662.6 692.5,669.7 686.5,670.2C680.2,670.7 670.4,666.2 670.4,666.2C663.7,663 669.9,660.2 678,656.7C686.8,652.4 684.8,648 684.8,648C681.5,638.4 642.3,631.7 603.3,631.7C603.1,653.2 604.2,688.9 604.7,709.7C632,714.9 652.4,713.9 652.4,713.9C652.4,713.9 752,711.1 755,647.5C758.1,583.8 655.7,522.7 580,503.3C504.4,483.5 461.6,497.3 457.9,499.2C453.9,501.2 457.6,501.8 457.6,501.8C457.6,501.8 461.7,502.4 468.8,504.8C476.3,507.2 470.5,511.1 470.5,511.1C457.6,515.2 443.1,512.6 440.3,506.7C437.5,500.8 442.2,495.5 447.6,487.9C453,479.9 458.9,480.2 458.9,480.2C552.4,447.8 666.3,506.4 666.3,506.4C773,560.5 791.2,623.9 789.2,648.5ZM507,645.2C496.4,650.4 503.7,657.9 503.7,657.9C523.6,679.3 548.1,692.7 571.4,701C574.1,664.1 573.7,651.1 574,632.5C537.6,635 516.6,640.8 507,645.2Z" style="fill:white;fill-rule:nonzero;"/>
                    <path d="M1479.9,637.6L1479.9,650.8C1479.9,653.7 1477.6,656 1474.7,656L1411.8,656C1411.8,659.3 1411.9,662.2 1411.9,664.9C1411.9,684.4 1411.1,700.3 1409.2,718.2C1408.9,720.9 1406.7,722.9 1404.1,722.9L1390.5,722.9C1389.1,722.9 1387.8,722.3 1386.9,721.3C1386,720.3 1385.5,718.9 1385.7,717.5C1387.6,699.7 1388.5,684 1388.5,664.9C1388.5,662.1 1388.5,659.2 1388.4,656L1326.2,656C1323.3,656 1321,653.7 1321,650.8L1321,637.6C1321,634.7 1323.3,632.4 1326.2,632.4L1387.5,632.4C1386.2,610.9 1383.6,590.2 1379.4,569.2C1379.2,567.9 1379.5,566.6 1380.3,565.6C1381.1,564.6 1382.3,564 1383.6,564L1398.3,564C1400.6,564 1402.5,565.6 1403,567.9C1407.1,589.6 1409.7,610.7 1411,632.4L1474.7,632.4C1477.5,632.4 1479.9,634.8 1479.9,637.6Z" style="fill:white;fill-rule:nonzero;"/>
                    <g>
                        <path d="M639.2,463.3L639.1,463.3M638.4,463.4C638.1,463.4 637.8,463.3 637.5,463.3C637.8,463.4 638.1,463.4 638.4,463.4L638.7,463.4L638.4,463.4ZM638.4,463.4C638.1,463.4 637.8,463.3 637.5,463.3C637.8,463.4 638.1,463.4 638.4,463.4L638.7,463.4L638.4,463.4Z" style="fill:none;fill-rule:nonzero;"/>
                        <path d="M1394.3,532.9C1361.8,453 1306.9,384.9 1235.5,335.9C1162.4,285.8 1076.7,259.3 987.7,259.3C840.5,259.3 703.9,332.4 622.4,454.9C621.5,456.2 621.3,457.9 621.8,459.4C622.3,461 623.5,462.1 625,462.6L636.4,466.5C637.1,466.7 637.8,466.8 638.4,466.8C640.5,466.8 642.5,465.7 643.7,464C681.1,409 731.7,363.3 790.1,331.7C850.4,299.1 918.7,281.8 987.6,281.8C1070.9,281.8 1151.2,306.4 1220,352.8C1287.1,398.1 1339.2,461.4 1370.7,535.7C1371.6,537.9 1373.8,539.4 1376.2,539.4L1389.8,539.4C1391.4,539.4 1392.9,538.6 1393.7,537.3C1394.7,536 1394.9,534.4 1394.3,532.9ZM638.4,463.4C638.1,463.4 637.8,463.3 637.5,463.2C637.8,463.3 638.1,463.4 638.4,463.4L638.6,463.4L638.4,463.4ZM1373.4,537.6C1373.7,537.8 1374,538 1374.3,538.1C1374,537.9 1373.7,537.8 1373.4,537.6Z" style="fill:url(#_Radial1);fill-rule:nonzero;"/>
                    </g>
                </g>
            </g>
        </g>
    </g>
    <defs>
        <radialGradient id="_Radial1" cx="0" cy="0" r="1" gradientUnits="userSpaceOnUse" gradientTransform="matrix(760.124,0,0,760.124,1381.52,538.896)"><stop offset="0" style="stop-color:white;stop-opacity:1"/><stop offset="0.01" style="stop-color:white;stop-opacity:1"/><stop offset="0.03" style="stop-color:rgb(203,255,255);stop-opacity:1"/><stop offset="0.06" style="stop-color:rgb(150,255,255);stop-opacity:1"/><stop offset="0.08" style="stop-color:rgb(104,255,255);stop-opacity:1"/><stop offset="0.11" style="stop-color:rgb(67,255,255);stop-opacity:1"/><stop offset="0.14" style="stop-color:rgb(37,255,255);stop-opacity:1"/><stop offset="0.16" style="stop-color:rgb(17,255,255);stop-opacity:1"/><stop offset="0.19" style="stop-color:rgb(4,255,255);stop-opacity:1"/><stop offset="0.22" style="stop-color:rgb(0,255,255);stop-opacity:1"/><stop offset="1" style="stop-color:rgb(0,0,255);stop-opacity:0"/></radialGradient>
    </defs>
</svg>
