<?xml version="1.0" encoding="UTF-8" standalone="no"?>
<svg
   xmlns:dc="http://purl.org/dc/elements/1.1/"
   xmlns:cc="http://creativecommons.org/ns#"
   xmlns:rdf="http://www.w3.org/1999/02/22-rdf-syntax-ns#"
   xmlns:svg="http://www.w3.org/2000/svg"
   xmlns="http://www.w3.org/2000/svg"
   xmlns:xlink="http://www.w3.org/1999/xlink"
   xmlns:sodipodi="http://sodipodi.sourceforge.net/DTD/sodipodi-0.dtd"
   xmlns:inkscape="http://www.inkscape.org/namespaces/inkscape"
   version="1.1"
   id="Layer_1_1_"
   x="0px"
   y="0px"
   viewBox="2600 -200 999.99996 173.26677"
   xml:space="preserve"
   inkscape:version="1.0.2 (e86c870879, 2021-01-15)"
   sodipodi:docname="Hbo-max_color_2019.svg"
   width="1000"
   height="173.26677"><metadata
     id="metadata3486"><rdf:RDF><cc:Work
         rdf:about=""><dc:format>image/svg+xml</dc:format><dc:type
           rdf:resource="http://purl.org/dc/dcmitype/StillImage" /><dc:title /></cc:Work></rdf:RDF></metadata><defs
     id="defs3484" /><sodipodi:namedview
     pagecolor="#ffffff"
     bordercolor="#666666"
     borderopacity="1"
     objecttolerance="10"
     gridtolerance="10"
     guidetolerance="10"
     inkscape:pageopacity="0"
     inkscape:pageshadow="2"
     inkscape:window-width="1366"
     inkscape:window-height="705"
     id="namedview3482"
     showgrid="false"
     fit-margin-top="0"
     fit-margin-left="0"
     fit-margin-right="0"
     fit-margin-bottom="0"
     inkscape:zoom="0.4505794"
     inkscape:cx="672.48375"
     inkscape:cy="-80.975342"
     inkscape:window-x="-8"
     inkscape:window-y="-8"
     inkscape:window-maximized="1"
     inkscape:current-layer="Layer_1_1_"
     inkscape:document-rotation="0" /><style
     type="text/css"
     id="style3439">
	.st0{fill:url(#XMLID_5_);}
	.st1{clip-path:url(#XMLID_6_);fill:url(#SVGID_1_);}
	.st2{clip-path:url(#XMLID_6_);fill:url(#SVGID_2_);}
	.st3{clip-path:url(#XMLID_6_);fill:url(#SVGID_3_);}
</style><linearGradient
     id="XMLID_5_"
     gradientUnits="userSpaceOnUse"
     x1="3080.6379"
     y1="-104.7449"
     x2="3700"
     y2="-104.7449"
     gradientTransform="translate(0,0.1)"><stop
       offset="0"
       style="stop-color:#991EEB"
       id="stop3444" /><stop
       offset="0.399"
       style="stop-color:#5822B4"
       id="stop3446" /><stop
       offset="0.727"
       style="stop-color:#5822B4"
       id="stop3448" /><stop
       offset="1"
       style="stop-color:#991EEB"
       id="stop3450" /></linearGradient><g
     id="g52"><path
       d="m 2723.1776,-27.460473 h -46.0893 v -65.725014 h -29.8172 v 65.725014 H 2600 V -197.0001 h 47.1802 v 63.27055 h 29.8172 v -63.27055 h 46.0893 v 169.539627 z m 211.2655,0.727248 c 47.1802,0 85.7243,-39.271378 85.7243,-87.087915 0,-48.54379 -38.5441,-86.08795 -85.7243,-86.08795 -47.8166,0 -71.9976,34.72608 -77.8156,48.90741 0,-20.99928 -20.9992,-46.08933 -45.362,-46.08933 h -78.7246 v 169.630537 h 73.2702 c 29.8172,0 50.8164,-25.45367 50.8164,-47.816538 6.6362,13.817707 30.0899,48.543786 77.8156,48.543786 z m -134.45,-68.906723 c 6.818,0 12.2723,6.636135 12.2723,14.181331 0,7.908819 -5.4543,14.544955 -12.2723,14.544955 h -23.4537 v -28.726286 z m 0,-63.634182 c 6.818,0 12.2723,6.63614 12.2723,14.18133 0,7.5452 -5.4543,14.18134 -12.2723,14.18134 h -23.4537 v -28.36267 z m 30.999,45.45299 c 5.4543,-0.36363 14.3631,-6.63614 17.7266,-10.36328 -1.2727,4.5453 -1.2727,18.90844 0,23.45374 -3.7271,-5.54527 -12.2723,-12.0905 -17.7266,-13.09046 z m 60.4524,0 c 0,-23.90827 19.4539,-43.18034 43.3622,-43.08943 23.9992,0.18181 43.0894,19.72659 42.8167,43.72577 -0.3636,23.635552 -19.4539,42.634899 -43.0894,42.634899 -23.8174,0 -43.0895,-19.272065 -43.0895,-43.271239 z m 42.9986,33.99883 c 18.363,0 33.817,-15.09039 33.817,-33.99883 0,-18.90844 -15.454,-33.81702 -33.817,-33.81702 -18.9085,0 -33.9989,14.90858 -33.9989,33.81702 0,18.90844 15.0904,33.99883 33.9989,33.99883 z"
       id="path3441"
       inkscape:connector-curvature="0"
       style="stroke-width:0.90906" /><g
       id="g888"
       transform="matrix(0.90905968,0,0,0.90905968,236.44484,-18.188064)"><path
         id="XMLID_1_"
         class="st0"
         d="m 3333.2,-130.7 c -1,-45.2 -33,-69.1 -72.2,-69.1 -21.5,0 -40.9,7.2 -54.1,21.2 -13.2,-14 -32.6,-21.2 -54.1,-21.2 -39.2,0 -71.2,24 -72.2,69.2 0,0.1 0,0.2 0,0.3 v 103.1 c 0,9.5 7.7,17.1 17.1,17.1 h 16.2 c 1.6,0 2.9,-1.3 2.9,-2.9 v -117.4 0 c 0.7,-22.3 16.5,-34.1 36,-34.1 19.5,0 35.3,11.8 36,34.1 v 0 103.1 c 0,9.5 7.7,17.1 17.1,17.1 h 16.2 c 1.6,0 2.9,-1.3 2.9,-2.9 v -117.4 0 c 0.7,-22.3 16.5,-34.1 36,-34.1 19.5,0 35.3,11.8 36,34.1 v 0 103.1 c 0,9.5 7.7,17.1 17.1,17.1 h 16.2 c 1.6,0 2.9,-1.3 2.9,-2.9 v -117.4 c 0.1,0.1 0,0 0,-0.1 z m 364.7,-66.2 h -27.5 c -7.6,0 -14.7,3.8 -19,10.1 l -30.4,45 c -4,5.9 -12.6,5.9 -16.6,0 l -30.4,-45 c -4.2,-6.3 -11.4,-10.1 -19,-10.1 h -27.5 c -1.7,0 -2.7,1.9 -1.8,3.3 l 54.2,80.4 c 3.9,5.8 3.9,13.4 0,19.2 l -54.2,80.4 c -1,1.4 0.1,3.3 1.8,3.3 h 27.5 c 7.6,0 14.7,-3.8 19,-10.1 l 30.4,-45 c 4,-5.9 12.6,-5.9 16.6,0 l 30.4,45 c 4.2,6.3 11.4,10.1 19,10.1 h 27.5 c 1.7,0 2.7,-1.9 1.8,-3.3 l -54.3,-80.3 c -3.9,-5.8 -3.9,-13.4 0,-19.2 l 54.2,-80.4 c 1,-1.4 0,-3.4 -1.7,-3.4 z m -184.6,0 h -16.2 c -8.2,0 -15.1,5.8 -16.8,13.5 -14.4,-11 -32.5,-16.6 -52,-16.6 -47.4,0 -85.9,33 -85.9,95.3 0,62.3 38.4,95.3 85.9,95.3 19.4,0 37.3,-5.5 51.7,-16.3 0.8,8.7 8.1,15.6 17.1,15.6 h 16.2 c 1.6,0 2.9,-1.3 2.9,-2.9 v -181 c -0.1,-1.6 -1.3,-2.9 -2.9,-2.9 z m -85,152.1 c -28.3,0 -51.3,-20.7 -51.3,-59.8 0,-39.1 23,-59.8 51.3,-59.8 28.3,0 51.3,20.7 51.3,59.8 0,39.1 -23,59.8 -51.3,59.8 z"
         inkscape:connector-curvature="0"
         style="fill:url(#XMLID_5_)" /><g
         id="g3453"
         transform="translate(0,0.1)"><defs
           id="defs3455"><path
             id="XMLID_2_"
             d="m 3333.2,-130.8 c -1,-45.2 -33,-69.1 -72.2,-69.1 -21.5,0 -40.9,7.2 -54.1,21.2 -13.2,-14 -32.6,-21.2 -54.1,-21.2 -39.2,0 -71.2,24 -72.2,69.2 0,0.1 0,0.2 0,0.3 v 103.1 c 0,9.5 7.7,17.1 17.1,17.1 h 16.2 c 1.6,0 2.9,-1.3 2.9,-2.9 v -117.4 0 c 0.7,-22.3 16.5,-34.1 36,-34.1 19.5,0 35.3,11.8 36,34.1 v 0 103.1 c 0,9.5 7.7,17.1 17.1,17.1 h 16.2 c 1.6,0 2.9,-1.3 2.9,-2.9 v -117.4 0 c 0.7,-22.3 16.5,-34.1 36,-34.1 19.5,0 35.3,11.8 36,34.1 v 0 103.1 c 0,9.5 7.7,17.1 17.1,17.1 h 16.2 c 1.6,0 2.9,-1.3 2.9,-2.9 v -117.4 c 0.1,0.1 0,0 0,-0.1 z m 364.7,-66.2 h -27.5 c -7.6,0 -14.7,3.8 -19,10.1 l -30.4,45 c -4,5.9 -12.6,5.9 -16.6,0 l -30.4,-45 c -4.2,-6.3 -11.4,-10.1 -19,-10.1 h -27.5 c -1.7,0 -2.7,1.9 -1.8,3.3 l 54.2,80.4 c 3.9,5.8 3.9,13.4 0,19.2 l -54.2,80.4 c -1,1.4 0.1,3.3 1.8,3.3 h 27.5 c 7.6,0 14.7,-3.8 19,-10.1 l 30.4,-45 c 4,-5.9 12.6,-5.9 16.6,0 l 30.4,45 c 4.2,6.3 11.4,10.1 19,10.1 h 27.5 c 1.7,0 2.7,-1.9 1.8,-3.3 L 3645.4,-94 c -3.9,-5.8 -3.9,-13.4 0,-19.2 l 54.2,-80.4 c 1,-1.4 0,-3.4 -1.7,-3.4 z m -184.6,0 h -16.2 c -8.2,0 -15.1,5.8 -16.8,13.5 -14.4,-11 -32.5,-16.6 -52,-16.6 -47.4,0 -85.9,33 -85.9,95.3 0,62.3 38.4,95.3 85.9,95.3 19.4,0 37.3,-5.5 51.7,-16.3 0.8,8.7 8.1,15.6 17.1,15.6 h 16.2 c 1.6,0 2.9,-1.3 2.9,-2.9 v -181 c -0.1,-1.6 -1.3,-2.9 -2.9,-2.9 z m -85,152.1 c -28.3,0 -51.3,-20.7 -51.3,-59.8 0,-39.1 23,-59.8 51.3,-59.8 28.3,0 51.3,20.7 51.3,59.8 0,39.1 -23,59.8 -51.3,59.8 z"
             inkscape:connector-curvature="0" /></defs><clipPath
           id="XMLID_6_"><use
             xlink:href="#XMLID_2_"
             style="overflow:visible"
             id="use3459"
             x="0"
             y="0"
             width="100%"
             height="100%" /></clipPath><radialGradient
           id="SVGID_1_"
           cx="1494.3917"
           cy="-276.44141"
           r="164.5752"
           gradientTransform="matrix(0.672,0,0,0.8748,2225.512,101.9935)"
           gradientUnits="userSpaceOnUse"><stop
             offset="0"
             style="stop-color:#7BA7F2;stop-opacity:0.5"
             id="stop3462" /><stop
             offset="1"
             style="stop-color:#7BA7F2;stop-opacity:0"
             id="stop3464" /></radialGradient><ellipse
           class="st1"
           cx="3229.7"
           cy="-139.8"
           rx="110.6"
           ry="144"
           id="ellipse3466"
           clip-path="url(#XMLID_6_)"
           style="fill:url(#SVGID_1_)" /><radialGradient
           id="SVGID_2_"
           cx="3339.8582"
           cy="-386.74179"
           r="227.5584"
           gradientTransform="matrix(1,0,0,0.7081,0,254.0226)"
           gradientUnits="userSpaceOnUse"><stop
             offset="0.2"
             style="stop-color:#7BA7F2"
             id="stop3469" /><stop
             offset="1"
             style="stop-color:#7BA7F2;stop-opacity:0"
             id="stop3471" /></radialGradient><ellipse
           class="st2"
           cx="3339.8999"
           cy="-19.799999"
           rx="227.60001"
           ry="161.10001"
           id="ellipse3473"
           clip-path="url(#XMLID_6_)"
           style="fill:url(#SVGID_2_)" /><radialGradient
           id="SVGID_3_"
           cx="3479.5854"
           cy="-189.1615"
           r="123.7732"
           gradientUnits="userSpaceOnUse"><stop
             offset="0"
             style="stop-color:#7BA7F2"
             id="stop3476" /><stop
             offset="1"
             style="stop-color:#7BA7F2;stop-opacity:0"
             id="stop3478" /></radialGradient><circle
           class="st3"
           cx="3479.6001"
           cy="-189.2"
           r="123.8"
           id="circle3480"
           clip-path="url(#XMLID_6_)"
           style="fill:url(#SVGID_3_)" /></g></g></g></svg>
