<?xml version="1.0" standalone="no"?><!DOCTYPE svg PUBLIC "-//W3C//DTD SVG 1.1//EN" "http://www.w3.org/Graphics/SVG/1.1/DTD/svg11.dtd"><svg t="1694665647970" class="icon" viewBox="0 0 1024 1024" version="1.1" xmlns="http://www.w3.org/2000/svg" p-id="1474" xmlns:xlink="http://www.w3.org/1999/xlink" width="200" height="200"><path d="M768 85.333333a170.666667 170.666667 0 0 1 170.666667 170.666667v512a170.666667 170.666667 0 0 1-170.666667 170.666667H256a170.666667 170.666667 0 0 1-170.666667-170.666667V256a170.666667 170.666667 0 0 1 170.666667-170.666667h512z m0 85.333334H256a85.333333 85.333333 0 0 0-85.077333 78.933333L170.666667 256v512a85.333333 85.333333 0 0 0 78.933333 85.12L256 853.333333h512a85.333333 85.333333 0 0 0 85.12-78.933333L853.333333 768V256a85.333333 85.333333 0 0 0-85.333333-85.333333z m-85.333333 128a42.666667 42.666667 0 0 1 42.666666 42.666666v341.333334a42.666667 42.666667 0 0 1-78.208 23.637333L384 443.136V682.666667a42.666667 42.666667 0 1 1-85.333333 0V341.333333a42.666667 42.666667 0 0 1 73.813333-29.184c2.304 1.536 4.522667 3.328 6.613333 5.418667L640 578.474667V341.333333a42.666667 42.666667 0 0 1 42.666667-42.666666z" p-id="1475" fill="#d81e06"></path></svg>