<svg width="616" height="512" xmlns="http://www.w3.org/2000/svg">
 <!--! Font Awesome Pro 6.4.2 by @fontawesome - https://fontawesome.com License - https://fontawesome.com/license (Commercial License) Copyright 2023 Fonticons, Inc. -->

 <g>
  <title>background</title>
  <rect fill="none" id="canvas_background" height="744" width="1662" y="-1" x="-1"/>
 </g>
 <g>
  <title>Layer 1</title>
  <path fill="#f17e80" stroke="null" id="svg_1" d="m218.659205,297.513847c6.918158,57.791927 56.863881,97.444781 123.176953,93.901335c43.196301,36.531247 115.415117,38.640441 157.261534,-4.724595c58.382501,0.928046 99.975814,-37.628028 110.943625,-83.945937c12.486431,-52.72986 -15.354935,-111.787303 -77.702722,-130.85442c-27.841366,-74.328011 -110.859258,-85.633293 -157.345902,-71.71261c-48.342736,14.595625 -71.122035,44.883657 -83.777201,92.55145c-6.580687,2.27793 -22.357461,7.508732 -37.965499,20.332634c9.87103,0 12.823902,7.508732 12.823902,16.451716l0,17.211026c0,9.027352 -7.339997,16.451716 -16.451716,16.451716l-17.042291,0c-9.027352,0 -16.451716,-5.062067 -16.451716,-14.089419l0,-5.568273l-39.484119,0c-3.205975,0 -9.11172,3.627814 -9.11172,10.039765l0,34.084581c0,5.399538 4.471492,9.955398 9.87103,9.955398l41.255842,0l0,-0.084368zm191.852322,6.83379c-9.027352,39.06228 18.307807,61.08227 46.65538,73.231229c-90.442256,28.43194 -144.775103,-42.943198 -114.149601,-93.563863c-28.010102,18.22344 -28.43194,60.069856 -24.635391,78.377664c-15.101832,-10.461604 -45.389863,-27.335159 -48.427103,-67.325485c-2.531033,-33.662743 18.139072,-63.866406 48.089632,-79.221342c25.816539,-13.330109 87.320648,-7.171261 112.715349,34.422053c-11.895856,-40.496532 -45.389863,-59.141811 -85.886396,-63.107096c26.069643,-25.900907 54.332848,-42.436991 96.348,-36.868718c58.888708,7.846203 112.377878,69.856518 57.116984,126.973503c29.528722,-13.751947 41.087107,-45.89607 40.074694,-64.87882l8.858616,16.536084c9.955398,18.560911 12.823902,40.159061 7.930571,60.744799c-7.761835,32.903433 -34.253317,58.04503 -67.241117,64.541349c-27.082056,5.31517 -70.109622,-4.302757 -77.449618,-49.945723l0,0.084368zm-209.232084,-87.742487l-33.578375,0c-7.508732,0 -13.66758,-6.158848 -13.66758,-13.66758l0,-33.409639c0,-7.508732 6.158848,-13.66758 13.66758,-13.66758l33.578375,0c7.508732,0 13.66758,6.158848 13.66758,13.66758l0,33.409639c0,7.508732 -6.158848,13.66758 -13.66758,13.66758zm109.762476,53.911009c-213.95668,-87.742487 -217.75323,-91.539037 -217.75323,-96.263632l0,-23.454242c0,-4.724595 3.79655,-8.521145 8.521145,-8.521145l23.369874,0c4.640228,0 8.521145,3.79655 8.521145,8.521145l0,23.454242c0,4.724595 -3.79655,8.521145 -8.521145,8.521145l-23.369874,0l209.232084,87.742487zm232.686326,12.486431l0,-18.054704c0,-4.302757 3.543447,-7.846203 7.846203,-7.846203l18.054704,0c4.302757,0 7.846203,3.543447 7.846203,7.846203l0,18.054704c0,4.302757 -3.543447,7.846203 -7.846203,7.846203l-18.054704,0c-4.302757,0 -7.846203,-3.543447 -7.846203,-7.846203zm-536.410319,-21.935622l0,21.091944c0,5.31517 -4.302757,9.702294 -9.617926,9.702294l111.956039,0c-5.31517,-21.345047 -9.617926,-25.732172 -9.617926,-31.047342l0,-21.091944c0,-5.31517 4.302757,-9.702294 9.617926,-9.702294l21.176312,0c5.399538,0 9.702294,4.387124 9.702294,9.702294l-133.216718,21.345047z"/>
 </g>
</svg>